<?xml version="1.0" encoding="utf-8"?>
<svg xmlns="http://www.w3.org/2000/svg">
  <symbol id="delete" viewBox="5 3 14 18">
    <path fill="currentColor" d="M19,4H15.5L14.5,3H9.5L8.5,4H5V6H19M6,19A2,2 0 0,0 8,21H16A2,2 0 0,0 18,19V7H6V19Z"></path>
  </symbol>
  <symbol id="hide" xmlns="http://www.w3.org/2000/svg" viewBox="1 4 22 18">
    <path fill="currentColor" d="M2,5.27L3.28,4L20,20.72L18.73,22L15.65,18.92C14.5,19.3 13.28,19.5 12,19.5C7,19.5 2.73,16.39 1,12C1.69,10.24 2.79,8.69 4.19,7.46L2,5.27M12,9A3,3 0 0,1 15,12C15,12.35 14.94,12.69 14.83,13L11,9.17C11.31,9.06 11.65,9 12,9M12,4.5C17,4.5 21.27,7.61 23,12C22.18,14.08 20.79,15.88 19,17.19L17.58,15.76C18.94,14.82 20.06,13.54 20.82,12C19.17,8.64 15.76,6.5 12,6.5C10.91,6.5 9.84,6.68 8.84,7L7.3,5.47C8.74,4.85 10.33,4.5 12,4.5M3.18,12C4.83,15.36 8.24,17.5 12,17.5C12.69,17.5 13.37,17.43 14,17.29L11.72,15C10.29,14.85 9.15,13.71 9,12.28L5.6,8.87C4.61,9.72 3.78,10.78 3.18,12Z"></path>
  </symbol>
  <symbol id="show" xmlns="http://www.w3.org/2000/svg" viewBox="1 4.5 22 15">
    <path fill="currentColor" d="M12,9A3,3 0 0,1 15,12A3,3 0 0,1 12,15A3,3 0 0,1 9,12A3,3 0 0,1 12,9M12,4.5C17,4.5 21.27,7.61 23,12C21.27,16.39 17,19.5 12,19.5C7,19.5 2.73,16.39 1,12C2.73,7.61 7,4.5 12,4.5M3.18,12C4.83,15.36 8.24,17.5 12,17.5C15.76,17.5 19.17,15.36 20.82,12C19.17,8.64 15.76,6.5 12,6.5C8.24,6.5 4.83,8.64 3.18,12Z"></path>
  </symbol>
  <symbol id="email" xmlns="http://www.w3.org/2000/svg" viewBox="2 4 20 16">
    <path fill="currentColor" d="M20,8L12,13L4,8V6L12,11L20,6M20,4H4C2.89,4 2,4.89 2,6V18A2,2 0 0,0 4,20H20A2,2 0 0,0 22,18V6C22,4.89 21.1,4 20,4Z"></path>
  </symbol>
  <symbol id="phone" xmlns="http://www.w3.org/2000/svg" viewBox="3 3 18 18">
    <path fill="currentColor" d="M6.62,10.79C8.06,13.62 10.38,15.94 13.21,17.38L15.41,15.18C15.69,14.9 16.08,14.82 16.43,14.93C17.55,15.3 18.75,15.5 20,15.5A1,1 0 0,1 21,16.5V20A1,1 0 0,1 20,21A17,17 0 0,1 3,4A1,1 0 0,1 4,3H7.5A1,1 0 0,1 8.5,4C8.5,5.25 8.7,6.45 9.07,7.57C9.18,7.92 9.1,8.31 8.82,8.59L6.62,10.79Z"></path>
  </symbol>
  <symbol id="location" xmlns="http://www.w3.org/2000/svg" viewBox="5 2 14 20">
    <path fill="currentColor" d="M12,11.5A2.5,2.5 0 0,1 9.5,9A2.5,2.5 0 0,1 12,6.5A2.5,2.5 0 0,1 14.5,9A2.5,2.5 0 0,1 12,11.5M12,2A7,7 0 0,0 5,9C5,14.25 12,22 12,22C12,22 19,14.25 19,9A7,7 0 0,0 12,2Z"></path>
  </symbol>
</svg>